<svg width="20" height="17" viewBox="0 0 20 20" fill="none" xmlns="http://www.w3.org/2000/svg">
<path d="M9.63486 4.78043C6.94904 4.78043 4.78264 6.94731 4.78264 9.63373C4.78264 12.3202 6.94904 14.487 9.63486 14.487C12.3207 14.487 14.4871 12.3202 14.4871 9.63373C14.4871 6.94731 12.3207 4.78043 9.63486 4.78043ZM9.63486 12.789C7.89921 12.789 6.48029 11.374 6.48029 9.63373C6.48029 7.89347 7.89499 6.47845 9.63486 6.47845C11.3747 6.47845 12.7894 7.89347 12.7894 9.63373C12.7894 11.374 11.3705 12.789 9.63486 12.789ZM15.8173 4.5819C15.8173 5.21127 15.3106 5.71392 14.6856 5.71392C14.0563 5.71392 13.5538 5.20704 13.5538 4.5819C13.5538 3.95676 14.0606 3.44989 14.6856 3.44989C15.3106 3.44989 15.8173 3.95676 15.8173 4.5819ZM19.031 5.73081C18.9592 4.21442 18.6129 2.87121 17.5023 1.76454C16.3959 0.657866 15.053 0.311503 13.5369 0.235472C11.9744 0.14677 7.2911 0.14677 5.7286 0.235472C4.21676 0.307279 2.87385 0.653642 1.7632 1.76031C0.652557 2.86698 0.310495 4.2102 0.234481 5.72659C0.145798 7.28945 0.145798 11.9738 0.234481 13.5366C0.306272 15.053 0.652557 16.3963 1.7632 17.5029C2.87385 18.6096 4.21254 18.956 5.7286 19.032C7.2911 19.1207 11.9744 19.1207 13.5369 19.032C15.053 18.9602 16.3959 18.6138 17.5023 17.5029C18.6087 16.3963 18.955 15.053 19.031 13.5366C19.1197 11.9738 19.1197 7.29367 19.031 5.73081ZM17.0124 15.2135C16.683 16.0414 16.0454 16.6793 15.2134 17.0129C13.9677 17.5071 11.0116 17.3931 9.63486 17.3931C8.25817 17.3931 5.29785 17.5029 4.05629 17.0129C3.22858 16.6835 2.59091 16.0457 2.25729 15.2135C1.7632 13.9675 1.87723 11.0107 1.87723 9.63373C1.87723 8.25673 1.76743 5.29575 2.25729 4.05391C2.58669 3.22602 3.22436 2.5882 4.05629 2.25451C5.30207 1.76031 8.25817 1.87436 9.63486 1.87436C11.0116 1.87436 13.9719 1.76454 15.2134 2.25451C16.0411 2.58398 16.6788 3.22179 17.0124 4.05391C17.5065 5.29997 17.3925 8.25673 17.3925 9.63373C17.3925 11.0107 17.5065 13.9717 17.0124 15.2135Z" fill="#584022"/>
</svg>
