<svg width="19" height="12" viewBox="0 0 19 14" fill="none" xmlns="http://www.w3.org/2000/svg">
<path d="M2.3662 1.70892C2.04084 1.70892 1.77465 1.96526 1.77465 2.27856V3.06537L8.15229 8.10669C8.9176 8.71193 10.0157 8.71193 10.781 8.10669L17.1549 3.06537V2.27856C17.1549 1.96526 16.8887 1.70892 16.5634 1.70892H2.3662ZM1.77465 5.27629V11.3928C1.77465 11.7061 2.04084 11.9624 2.3662 11.9624H16.5634C16.8887 11.9624 17.1549 11.7061 17.1549 11.3928V5.27629L11.9049 9.42754C10.4852 10.549 8.44067 10.549 7.02464 9.42754L1.77465 5.27629ZM0 2.27856C0 1.02179 1.06109 0 2.3662 0H16.5634C17.8685 0 18.9296 1.02179 18.9296 2.27856V11.3928C18.9296 12.6496 17.8685 13.6714 16.5634 13.6714H2.3662C1.06109 13.6714 0 12.6496 0 11.3928V2.27856Z" fill="#584022"/>
</svg>
